<svg xmlns="http://www.w3.org/2000/svg" xmlns:xlink="http://www.w3.org/1999/xlink" width="254.766" height="312.359" viewBox="0 0 254.766 312.359">
  <defs>
    <clipPath id="clip-path">
      <path id="Path_729" data-name="Path 729" d="M1091.652-1685.359l-35.2-19.007v49.263s23.217,23.42,41.6,17.767-.675,4.183,13.594.953c3.252.953,34.775,3.893,43.481-13.874s-40.63-54.109-40.63-54.109Z" transform="translate(-1056.45 1704.366)" fill="none" stroke="#707070" stroke-width="1"/>
    </clipPath>
  </defs>
  <g id="Group_1508" data-name="Group 1508" transform="translate(-48.842 -160.676)">
    <g id="Group_1500" data-name="Group 1500" transform="translate(81.381 160.676)">
      <g id="Group_1499" data-name="Group 1499" transform="translate(8.836)">
        <path id="Path_640" data-name="Path 640" d="M239.773,194.2c-1.14,8.551-6.271,15.106-12.826,15.106-6.27,0-11.686-6.556-12.826-15.106H199.3l9.406,71.541,18.242.57,18.241-.57,9.406-71.541Z" transform="translate(-133.459 -134.04)" fill="#fdb171"/>
        <path id="Path_641" data-name="Path 641" d="M226.621,184.99v-.855h0c0-1.14-.285-2.28-.285-3.135h0a11.973,11.973,0,0,1-5.986,1.71v1.14c0,1.14.285,2,.285,2.565a2.094,2.094,0,0,1,1.71-.57c1.425.285,2.565,2.85,2,5.415-.285,2.28-1.425,3.99-2.85,4.56-.285,0-.57.285-.855,0h-.285c-1.14,4.275-2.565,7.981-3.99,9.406-2,2-3.42,3.705-4.56,4.845h0v9.121c4.845-.285,9.406,6.556,23.372-2.565-2.28.57-5.985-1.425-4.275-2s6.271-.285,11.971-5.7c-3.42.57-11.4-.855-4.56-3.42C230.327,205.227,228.046,195.821,226.621,184.99Z" transform="translate(-111.31 -158.463)" fill="#6e4020"/>
        <path id="Path_642" data-name="Path 642" d="M206.2,191.557V203a3.487,3.487,0,0,0,.263,1.787c.789,4.29,3.417,7.507,6.834,7.507h.789c3.417,0,6.046-3.217,6.835-7.507,0-.715.263-1.43.263-2.145V191.2C217.5,191.557,209.617,191.557,206.2,191.557Z" transform="translate(-120.693 -143.866)" fill="#ec9e5d"/>
        <rect id="Rectangle_433" data-name="Rectangle 433" width="25.937" height="26.222" transform="translate(80.662 60.16)" fill="#ec9e5d"/>
        <g id="Group_1494" data-name="Group 1494" transform="translate(0 2.015)">
          <path id="Path_643" data-name="Path 643" d="M199.186,206.867l-9.976,1.71-1.425-15.961c-2-.57-2.85-2.28-3.99-4.845l-2-8.266c4.275-2.565,9.121-3.135,14.251-3.705l.855,5.415,2.28-.57h0v5.7a5.339,5.339,0,0,1-2.28,3.99l-1.71.57Z" transform="translate(-165.839 -170.099)" fill="#e6b07c"/>
          <g id="Group_1493" data-name="Group 1493">
            <path id="Path_644" data-name="Path 644" d="M204.727,181.13a107.988,107.988,0,0,1-23.372,3.705l-.855-5.13A107.992,107.992,0,0,1,203.872,176Z" transform="translate(-168.244 -169.729)" fill="#3d4545"/>
            <circle id="Ellipse_188" data-name="Ellipse 188" cx="7.981" cy="7.981" r="7.981" transform="translate(0 5.13)" fill="#3d4545"/>
            <circle id="Ellipse_189" data-name="Ellipse 189" cx="7.981" cy="7.981" r="7.981" transform="translate(32.778)" fill="#3d4545"/>
            <path id="Path_645" data-name="Path 645" d="M180.085,179.711c-1.14,1.71-1.71,1.71-2.565,1.425s-1.14-1.71-.285-3.135,2.28-2,3.135-1.14C180.94,177.431,180.94,178,180.085,179.711Z" transform="translate(-175.24 -168.88)" fill="#fff"/>
            <path id="Path_646" data-name="Path 646" d="M191.485,177.811c-1.14,1.71-1.71,1.71-2.565,1.425s-1.14-1.71-.285-3.135,2.28-2,3.135-1.14C192.34,175.531,192.625,176.386,191.485,177.811Z" transform="translate(-154.147 -172.396)" fill="#fff"/>
          </g>
          <path id="Path_647" data-name="Path 647" d="M185.97,180.577c.285,1.14.57,1.71,1.425,1.71h1.14c.57,0,.285,0,.57-.285s.285-1.14.285-1.71v-3.705a2.177,2.177,0,0,0-.57-1.425,1.253,1.253,0,0,0-1.425-.285h-.57c-.855,0-1.425.855-1.425,2Z" transform="translate(-159.178 -172.026)" fill="#fdb171"/>
          <path id="Path_648" data-name="Path 648" d="M184.67,181.9c0,.57.285.855.855,1.425a1.253,1.253,0,0,0,1.425.285,1.762,1.762,0,0,0,1.425-2.28l-.285-4.845c0-.57-.285-.855-.57-1.425a1.253,1.253,0,0,0-1.425-.285h-.57c-.855,0-1.425.855-1.425,2Z" transform="translate(-161.583 -172.211)" fill="#fdb171"/>
          <path id="Path_649" data-name="Path 649" d="M183.84,181.422c.285,1.14.57,2,1.71,1.71h.285c.57,0,.855-.285,1.14-.855a1.254,1.254,0,0,0,.285-1.425l-.57-3.99a1.674,1.674,0,0,0-2-1.425h-.57c-.57,0-.855.285-1.14.855a2.136,2.136,0,0,0-.285,1.425Z" transform="translate(-164.173 -170.876)" fill="#fdb171"/>
          <path id="Path_650" data-name="Path 650" d="M182.418,180.423a1.346,1.346,0,0,0,1.425,1.425h.285a1.6,1.6,0,0,0,1.425-1.71l-.285-2.85a1.256,1.256,0,0,0-1.71-1.14h-.57c-.855,0-1.425.855-1.14,1.425Z" transform="translate(-165.887 -169.593)" fill="#fdb171"/>
          <path id="Path_651" data-name="Path 651" d="M185.887,195.089l-.57-3.99a5.935,5.935,0,0,1,3.705-7.7s.57-1.71.285-2l-1.425-1.425c-1.425-1.425-1.425-2.85-1.14-3.42l.285-.285a1.069,1.069,0,0,1,1.71,0l1.71,1.425,2.565,2c.285.285.57.57.57.855h0v5.7a5.339,5.339,0,0,1-2.28,3.99l-1.425,1.14,3.705,15.106-5.7,1.14Z" transform="translate(-159.95 -170.007)" fill="#fdb171"/>
        </g>
        <g id="Group_1496" data-name="Group 1496" transform="translate(138.236 2.015)">
          <path id="Path_652" data-name="Path 652" d="M230.2,206.867l9.976,1.71,1.425-15.961c2-.57,2.85-2.28,3.99-4.845l2-8.266c-4.275-2.565-9.121-3.135-14.251-3.705l-.855,5.415-2.28-.57h0v5.7a5.339,5.339,0,0,0,2.28,3.99l1.71.57Z" transform="translate(-214.524 -170.099)" fill="#e6b07c"/>
          <g id="Group_1495" data-name="Group 1495">
            <path id="Path_653" data-name="Path 653" d="M229,181.13a107.99,107.99,0,0,0,23.372,3.705l.855-5.13A107.994,107.994,0,0,0,229.855,176Z" transform="translate(-216.744 -169.729)" fill="#3d4545"/>
            <circle id="Ellipse_190" data-name="Ellipse 190" cx="7.981" cy="7.981" r="7.981" transform="translate(32.778 5.13)" fill="#3d4545"/>
            <circle id="Ellipse_191" data-name="Ellipse 191" cx="7.981" cy="7.981" r="7.981" fill="#3d4545"/>
            <path id="Path_654" data-name="Path 654" d="M240.473,179.329c1.425-1.425,1.425-2,.855-2.85s-1.71-.855-3.135.57c-1.14,1.14-1.425,2.565-.57,3.135S239.333,180.754,240.473,179.329Z" transform="translate(-201.71 -169.923)" fill="#fff"/>
            <path id="Path_655" data-name="Path 655" d="M228.381,177.729c1.14-1.71.855-2.28.285-2.85s-2-.285-2.85,1.14-.855,2.85,0,3.135S227.241,179.154,228.381,177.729Z" transform="translate(-223.821 -172.313)" fill="#fff"/>
          </g>
          <path id="Path_656" data-name="Path 656" d="M234.62,180.577c-.285,1.14-.57,1.71-1.425,1.71h-1.14c-.57,0-.285,0-.57-.285s-.285-1.14-.285-1.71v-3.705a2.177,2.177,0,0,1,.57-1.425,1.253,1.253,0,0,1,1.425-.285h.57c.855,0,1.425.855,1.425,2Z" transform="translate(-212.673 -172.026)" fill="#fdb171"/>
          <path id="Path_657" data-name="Path 657" d="M236.152,181.947c0,.57-.285.855-.855,1.425a1.253,1.253,0,0,1-1.425.285,1.762,1.762,0,0,1-1.425-2.28l.285-4.845c0-.57.285-.855.57-1.425s.855-.57,1.425-.285h.57c.855,0,1.425.855,1.425,2Z" transform="translate(-210.5 -172.256)" fill="#fdb171"/>
          <path id="Path_658" data-name="Path 658" d="M237.2,181.422c-.285,1.14-.57,2-1.71,1.71H235.2c-.57,0-.855-.285-1.14-.855a1.253,1.253,0,0,1-.285-1.425l.57-3.99a1.674,1.674,0,0,1,2-1.425h.57c.57,0,.855.285,1.14.855a2.136,2.136,0,0,1,.285,1.425Z" transform="translate(-208.124 -170.876)" fill="#fdb171"/>
          <path id="Path_659" data-name="Path 659" d="M238.035,180.423a1.346,1.346,0,0,1-1.425,1.425h-.285a1.6,1.6,0,0,1-1.425-1.71l.285-2.85a1.256,1.256,0,0,1,1.71-1.14h.57c.855,0,1.425.855,1.14,1.425Z" transform="translate(-205.828 -169.593)" fill="#fdb171"/>
          <path id="Path_660" data-name="Path 660" d="M237.8,195.089l.57-3.99a5.935,5.935,0,0,0-3.705-7.7s-.57-1.71-.285-2l1.425-1.425c1.425-1.425,1.425-2.85,1.14-3.42l-.285-.285a1.069,1.069,0,0,0-1.71,0l-1.71,1.425-2.565,2c-.285.285-.57.57-.57.855h0v5.7a5.339,5.339,0,0,0,2.28,3.99l1.425,1.14L230.1,206.49l5.415,1.14Z" transform="translate(-214.709 -170.007)" fill="#fdb171"/>
        </g>
        <path id="Path_661" data-name="Path 661" d="M192.566,317.251c-1.425,3.99-7.981,3.135-8.266-1.14,7.126-36.768,8.551-62.42,27.077-72.111,3.135-1.14,5.985-2.85,10.546-.57h.285a8.587,8.587,0,0,1,3.42,11.971C214.512,287.038,199.406,305.28,192.566,317.251Z" transform="translate(-161.213 -45.033)" fill="#fdb171"/>
        <path id="Path_662" data-name="Path 662" d="M253.045,317.251c1.425,3.99,7.981,3.135,8.266-1.14-7.126-36.768-8.551-62.42-27.077-72.111-3.135-1.14-5.986-2.85-10.546-.57H223.4a8.587,8.587,0,0,0-3.42,11.971C231.1,287.038,246.2,305.28,253.045,317.251Z" transform="translate(-97.422 -45.033)" fill="#fdb171"/>
        <path id="Path_663" data-name="Path 663" d="M220.69,211.839l35.913-4.56a6.971,6.971,0,0,0,5.985-7.7h0a6.962,6.962,0,0,0-7.411-6.27l-38.478,2.85V208.7A3.547,3.547,0,0,0,220.69,211.839Z" transform="translate(-101.265 -135.718)" fill="#ffcf9f"/>
        <path id="Path_664" data-name="Path 664" d="M194.346,229.654h0a6.752,6.752,0,0,1-6.841-6.841L183.8,182.625l8.551-1.425,8.836,41.613A6.586,6.586,0,0,1,194.346,229.654Z" transform="translate(-162.138 -158.093)" fill="#fdb171"/>
        <path id="Path_665" data-name="Path 665" d="M234.941,229.654h0a6.752,6.752,0,0,0,6.841-6.841l3.705-40.188-8.551-1.425L228.1,222.813A6.752,6.752,0,0,0,234.941,229.654Z" transform="translate(-80.173 -158.093)" fill="#fdb171"/>
        <g id="Group_1497" data-name="Group 1497" transform="translate(14.792 267.424)">
          <path id="Path_666" data-name="Path 666" d="M203.347,278.44c-4.275,1.71-16.246,1.71-20.522,0a2.539,2.539,0,0,1-1.425-2.28V271.6h23.657v4.56A2.168,2.168,0,0,1,203.347,278.44Z" transform="translate(-181.37 -258.256)" fill="#ededed"/>
          <path id="Path_667" data-name="Path 667" d="M191.256,279.122h-6.27l-.285-10.261c.855-2.85,7.7-2.565,7.7.855Z" transform="translate(-175.265 -266.918)" fill="#cc350e"/>
          <path id="Path_668" data-name="Path 668" d="M204.791,280.7c0,.57-.285.855-.57,1.425-2.565,2-19.382,2.28-22.232,0h0c-2.28-3.135,2.28-10.546,7.981-14.821l1.71,1.71a2.71,2.71,0,0,1,1.14,2.85c-.285,3.42-.57,5.986,1.14,5.986s1.425-2.565,1.71-5.986a2.419,2.419,0,0,1,2-2.28,7.146,7.146,0,0,0,2-1.14C201.656,270.72,205.646,277.276,204.791,280.7Z" transform="translate(-181.39 -266.212)" fill="#de4922"/>
          <path id="Path_669" data-name="Path 669" d="M190.97,271.664a17.253,17.253,0,0,0-5.415,0c-.285,0-.57-.285-.855-.57h0c0-.285.285-.57.57-.855a21.062,21.062,0,0,1,5.985,0c.285,0,.57.285.57.855h0C191.541,271.379,191.256,271.664,190.97,271.664Z" transform="translate(-175.265 -261.17)" fill="#f6f6f6"/>
          <path id="Path_670" data-name="Path 670" d="M190.97,270.864a17.253,17.253,0,0,0-5.415,0c-.285,0-.57-.285-.855-.57h0c0-.285.285-.57.57-.855a21.051,21.051,0,0,1,5.985,0c.285,0,.57.285.57.855h0C191.541,270.579,191.256,270.864,190.97,270.864Z" transform="translate(-175.265 -262.65)" fill="#f6f6f6"/>
          <path id="Path_671" data-name="Path 671" d="M190.97,270.064a17.255,17.255,0,0,0-5.415,0c-.285,0-.57-.285-.855-.57h0c0-.285.285-.57.57-.855a21.055,21.055,0,0,1,5.985,0c.285,0,.57.285.57.855h0C191.541,269.779,191.256,270.064,190.97,270.064Z" transform="translate(-175.265 -264.13)" fill="#f6f6f6"/>
          <path id="Path_672" data-name="Path 672" d="M204.4,273.85c0,.57-.285.855-.57,1.425-2.565,2-19.382,2.28-22.232,0h0c2.565-2.565,6.841-4.275,12.256-4.275A19.237,19.237,0,0,1,204.4,273.85Z" transform="translate(-181 -259.366)" fill="#cc350e"/>
        </g>
        <g id="Group_1498" data-name="Group 1498" transform="translate(148.497 267.424)">
          <path id="Path_673" data-name="Path 673" d="M230.01,278.44c4.275,1.71,16.246,1.71,20.522,0a2.539,2.539,0,0,0,1.425-2.28V271.6H228.3v4.56A2.167,2.167,0,0,0,230.01,278.44Z" transform="translate(-228.3 -258.256)" fill="#ededed"/>
          <path id="Path_674" data-name="Path 674" d="M231.74,279.122h6.271l.285-10.261c-.855-2.85-7.7-2.565-7.7.855Z" transform="translate(-224.044 -266.918)" fill="#cc350e"/>
          <path id="Path_675" data-name="Path 675" d="M228.477,280.7c0,.57.285.855.57,1.425,2.565,2,19.382,2.28,22.232,0h0c2.28-3.135-2.28-10.546-7.981-14.821l-1.71,1.71a2.71,2.71,0,0,0-1.14,2.85c.285,3.42.57,5.986-1.14,5.986s-1.425-2.565-1.71-5.986a2.419,2.419,0,0,0-2-2.28,7.146,7.146,0,0,1-2-1.14C231.612,270.72,227.622,277.276,228.477,280.7Z" transform="translate(-228.192 -266.212)" fill="#de4922"/>
          <path id="Path_676" data-name="Path 676" d="M231.655,271.664a17.253,17.253,0,0,1,5.415,0c.285,0,.57-.285.855-.57h0c0-.285-.285-.57-.57-.855a21.062,21.062,0,0,0-5.986,0c-.285,0-.57.285-.57.855h0C231.085,271.379,231.37,271.664,231.655,271.664Z" transform="translate(-223.674 -261.17)" fill="#f6f6f6"/>
          <path id="Path_677" data-name="Path 677" d="M231.655,270.864a17.253,17.253,0,0,1,5.415,0c.285,0,.57-.285.855-.57h0c0-.285-.285-.57-.57-.855a21.051,21.051,0,0,0-5.986,0c-.285,0-.57.285-.57.855h0C231.085,270.579,231.37,270.864,231.655,270.864Z" transform="translate(-223.674 -262.65)" fill="#f6f6f6"/>
          <path id="Path_678" data-name="Path 678" d="M231.655,270.064a17.255,17.255,0,0,1,5.415,0c.285,0,.57-.285.855-.57h0c0-.285-.285-.57-.57-.855a21.055,21.055,0,0,0-5.986,0c-.285,0-.57.285-.57.855h0C231.085,269.779,231.37,270.064,231.655,270.064Z" transform="translate(-223.674 -264.13)" fill="#f6f6f6"/>
          <path id="Path_679" data-name="Path 679" d="M228.4,273.85c0,.57.285.855.57,1.425,2.565,2,19.382,2.28,22.232,0h0c-2.565-2.565-6.84-4.275-12.256-4.275A19.238,19.238,0,0,0,228.4,273.85Z" transform="translate(-228.115 -259.366)" fill="#cc350e"/>
        </g>
        <path id="Path_680" data-name="Path 680" d="M200.9,183.3a4.85,4.85,0,0,1,.285-2A4.226,4.226,0,0,1,200.9,183.3Z" transform="translate(-130.499 -157.908)" fill="#a15e2e"/>
        <path id="Path_681" data-name="Path 681" d="M255.58,184.8c1.71-2.28,2.28-3.705,3.705-7.411,0,0-2.565,3.42-9.976,2.85-.285,0,1.425-2.28.855-2a18.321,18.321,0,0,1-9.691-.285h0a17.732,17.732,0,0,0-6.841-1.14c1.14-1.14,0-3.99-.285-3.705-2,2.85-5.13,2.565-11.116,3.99-4.845.57-17.671,3.42-20.522,18.527,0,.57-.285.855-.285,1.425h0c0,.57-.285,1.14-.285,2h0v.855c-2.565,16.816,4.56,27.932,15.106,31.923v-6.556h0c-1.14-1.14-2.565-2.85-4.56-4.845-1.425-1.71-2.85-5.13-3.99-9.406h-1.14c-1.14-.57-2.28-2.28-2.85-4.56-.57-2.85.57-5.415,2-5.415a2.094,2.094,0,0,1,1.71.57,7.89,7.89,0,0,1,.285-2.565c.285-2,.57-3.705.855-5.415a23.769,23.769,0,0,1,1.14-3.42c9.691-2,19.1,9.121,30.783,7.981a23.659,23.659,0,0,0,5.985-1.71h0c3.705-1.71,7.411-4.845,11.4-10.261C258.43,185.084,255.3,184.8,255.58,184.8Z" transform="translate(-129.069 -173.093)" fill="#884f27"/>
        <path id="Path_682" data-name="Path 682" d="M240.66,190.072a2.094,2.094,0,0,0-1.71.57,9.818,9.818,0,0,0-.285-2.565v-1.14c-11.686,1.14-21.092-9.976-30.783-7.981a9.615,9.615,0,0,0-1.14,3.42c-.285,1.71-.57,3.42-.855,5.415,0,.855-.285,1.71-.285,2.565a2.094,2.094,0,0,0-1.71-.57c-1.425.285-2.565,2.85-2,5.415.285,2.28,1.425,3.99,2.85,4.56.285,0,.57.285.855,0h.285c1.14,4.275,2.565,7.981,3.99,9.406,2,2,3.42,3.705,4.56,4.845h0c2,2,3.99,2.85,7.7,3.135h0c3.705-.285,5.7-1.14,7.7-3.135,1.425-1.14,2.565-2.85,4.56-4.845,1.425-1.71,2.85-5.13,3.99-9.406h1.14c1.14-.57,2.28-2.28,2.85-4.56C242.941,192.637,242.086,190.357,240.66,190.072Z" transform="translate(-128.931 -162.69)" fill="#fdb171"/>
        <path id="Path_683" data-name="Path 683" d="M247.259,211.481l-1.425,9.691c-14.536,3.705-29.072,3.99-43.609,0l-1.425-9.691a15.021,15.021,0,0,0,9.976,3.99c7.411,0,13.4-5.415,13.4-11.971,0,6.555,5.985,11.971,13.111,11.971C241.558,215.186,244.979,213.761,247.259,211.481Z" transform="translate(-130.684 -116.833)" fill="#cf4433"/>
        <path id="Path_684" data-name="Path 684" d="M254.78,194.2l-2.85,20.522-2,13.966a14.075,14.075,0,0,1-9.691,3.705c-7.411,0-13.111-5.415-13.111-11.971,0,6.556-5.986,11.971-13.4,11.971a13.756,13.756,0,0,1-9.976-3.99l-1.71-13.681L199.2,194.2h14.821c1.14,8.551,6.271,15.106,12.826,15.106s11.686-6.556,12.826-15.106Z" transform="translate(-133.645 -134.04)" fill="#eb4d3a"/>
        <path id="Path_685" data-name="Path 685" d="M227.046,211.839l-35.913-4.56a6.971,6.971,0,0,1-5.985-7.7h0a6.962,6.962,0,0,1,7.411-6.27l41.613,2.85C234.456,195.878,238.447,210.414,227.046,211.839Z" transform="translate(-159.78 -135.718)" fill="#fdb171"/>
        <path id="Path_686" data-name="Path 686" d="M238.39,248.883l-27.647,49.309c-5.13,7.981-19.667,5.415-17.386-9.121,1.425-28.787,10.831-54.154,26.507-70.971,12.256,4.845,24.8,5.415,37.338,0,15.676,16.816,25.082,42.184,26.507,70.971,2.28,14.536-12.541,17.1-17.386,9.121Z" transform="translate(-144.902 -89.819)" fill="#fdb171"/>
        <path id="Path_687" data-name="Path 687" d="M225.752,212.171c0,6.555-5.7,11.971-12.826,11.971a12.467,12.467,0,0,1-9.406-3.99,11.984,11.984,0,0,1-3.42-7.981,10.277,10.277,0,0,1,1.71-5.7,12.934,12.934,0,0,1,11.116-6.271C220.052,200.485,225.752,205.615,225.752,212.171Z" transform="translate(-131.979 -122.939)" fill="#eb4d3a"/>
        <path id="Path_688" data-name="Path 688" d="M234.182,212.171a11.415,11.415,0,0,1-3.42,8.266,12.678,12.678,0,0,1-9.121,3.705c-6.841,0-12.541-5.415-12.541-11.971s5.7-11.971,12.541-11.971a12.835,12.835,0,0,1,10.831,5.986A11.973,11.973,0,0,1,234.182,212.171Z" transform="translate(-115.327 -122.939)" fill="#eb4d3a"/>
        <path id="Path_689" data-name="Path 689" d="M223.413,211.839l35.913-4.56a6.972,6.972,0,0,0,5.986-7.7h0a6.963,6.963,0,0,0-7.411-6.27l-41.613,2.85C216,195.878,212.012,210.414,223.413,211.839Z" transform="translate(-103.703 -135.718)" fill="#fdb171"/>
      </g>
    </g>
    <g id="Mask_Group_101" data-name="Mask Group 101" transform="translate(134.258 263.319)" clip-path="url(#clip-path)">
      <path id="Path_728" data-name="Path 728" d="M238.39,248.883l-27.647,49.309c-5.13,7.981-19.667,5.415-17.386-9.121,1.425-28.787,10.831-54.154,26.507-70.971,12.256,4.845,24.8,5.415,37.338,0,15.676,16.816,25.082,42.184,26.507,70.971,2.28,14.536-12.541,17.1-17.386,9.121Z" transform="translate(-188.943 -192.462)" fill="#de4922"/>
    </g>
    <ellipse id="Ellipse_204" data-name="Ellipse 204" cx="112.383" cy="17.917" rx="112.383" ry="17.917" transform="translate(63.842 422.201)" fill="#ff9b70" opacity="0.223"/>
  </g>
</svg>
