<svg xmlns="http://www.w3.org/2000/svg" width="254.766" height="333.025" viewBox="0 0 254.766 333.025">
  <g id="Group_1509" data-name="Group 1509" transform="translate(-46.642 -169.333)">
    <g id="Group_1507" data-name="Group 1507" transform="translate(77.312 169.333)">
      <g id="Group_1471" data-name="Group 1471" transform="translate(110.761 9.019)">
        <path id="Path_574" data-name="Path 574" d="M7.024,21.317s-2.481-4.466-1.985-8.683A15.378,15.378,0,0,1,17.692.23C26.127-1.011,7.024,21.317,7.024,21.317Z" transform="translate(7.706 0.266)" fill="#912909"/>
        <path id="Path_575" data-name="Path 575" d="M11.1,10.4S6.883,13.873,5.643,24.045a80.17,80.17,0,0,0,.5,20.1c.992,5.954,3.969,12.156,2.977,17.118a19.36,19.36,0,0,0,4.962,17.118s-2.977-3.969-1.24-10.668c.5-2.233,2.977-6.2,1.737-12.4-1.24-6.45-4.466-13.149-3.473-17.118,1.24-3.969,2.233-7.443,1.24-11.164s0-13.149.992-13.893c.992-.992-.992-.992-.992-.992Z" transform="translate(8.095 15.401)" fill="#912909"/>
        <path id="Path_576" data-name="Path 576" d="M6.643,11.135a2.157,2.157,0,0,0,.992,2.977l2.233,1.24a2.157,2.157,0,0,0,2.977-.992h0a2.157,2.157,0,0,0-.992-2.977L9.62,10.143a2.218,2.218,0,0,0-2.977.992Z" transform="translate(9.823 14.666)" fill="#93a100"/>
        <path id="Path_577" data-name="Path 577" d="M6.1,14.637C7.34,7.443,10.814,0,20.985,0,31.653,0,37.359,8.931,37.607,14.637a28.09,28.09,0,0,1-1.24,10.668c-.5,1.24-5.21,4.218-6.2,7.939S6.1,14.637,6.1,14.637Z" transform="translate(9.374 0)" fill="#912909"/>
        <path id="Path_578" data-name="Path 578" d="M36.145,40.4s-4.962,8.187-4.962,11.412c-.248,2.977.992,9.179.992,9.179L4.886,70.913s-.248-14.885-.5-21.336C4.141,43.376,2.9,38.662,2.9,34.94,2.653,31.467,36.393,35.933,36.145,40.4Z" transform="translate(4.634 49.906)" fill="#f09f5b"/>
        <path id="Path_579" data-name="Path 579" d="M5.3,54.179s9.676-3.225,13.645-4.714C22.914,47.729,31.846,45,31.846,45c2.729,3.969,2.729,5.706,5.706,14.141s-1.24,17.614-3.969,20.84-.744,8.435-.248,14.141c.5,5.458-4.218,20.84-4.962,27.538-.248,4.714,2.233,13.4,2.729,17.614.744,4.714,1.985,10.42.248,20.1-1.737,9.427-6.45,31.011-4.714,39.2s1.24,6.45,1.24,6.45-6.45,4.218-9.427,3.473c-2.977-.5-2.481-2.977-2.481-2.977s3.473-27.29-.744-51.851-6.45-19.1-5.458-32.252v-.5A210.946,210.946,0,0,1,7.285,92.137C7.037,78,7.533,75.019,6.292,70.305,5.052,65.1,5.548,62.118,5.3,54.179Z" transform="translate(8.189 66.64)" fill="#f09f5b"/>
        <path id="Path_580" data-name="Path 580" d="M9.914,121.412v-.5A210.946,210.946,0,0,1,7.433,92.137C7.185,78,7.681,75.019,6.44,70.305,5.2,65.1,5.7,61.87,5.2,54.179c0,0,9.676-3.225,13.645-4.714A50.9,50.9,0,0,0,27.032,45c2.729,3.969,7.939,5.706,10.916,14.141s-1.24,17.614-3.969,20.84-.744,8.435-.248,14.141c.5,5.458-4.218,20.84-4.962,27.538-.248,4.714,2.233,13.4,2.729,17.614a52.8,52.8,0,0,1,.5,18.359c-1.489.5-8.931,3.225-15.878,0h0c-.248-1.24-.5-2.729-.744-3.969C11.154,129.1,9.169,134.312,9.914,121.412Z" transform="translate(8.041 66.64)" fill="#4eb6f2"/>
        <path id="Path_581" data-name="Path 581" d="M9.914,121.412v-.5A210.946,210.946,0,0,1,7.433,92.137C7.185,78,7.681,75.019,6.44,70.305,5.2,65.1,5.7,61.87,5.2,54.179c0,0,9.676-3.225,13.645-4.714A50.9,50.9,0,0,0,27.032,45c2.729,3.969,7.939,5.706,10.916,14.141s-1.24,17.614-3.969,20.84-.744,8.435-.248,14.141c.5,5.458-4.218,20.84-4.962,27.538-.248,4.714,2.233,13.4,2.729,17.614a52.8,52.8,0,0,1,.5,18.359c-1.489.5-8.931,3.225-15.878,0h0c-.248-1.24-.5-2.729-.744-3.969C11.154,129.1,9.169,134.312,9.914,121.412Z" transform="translate(8.041 66.64)" fill="#f09f5b"/>
        <path id="Path_582" data-name="Path 582" d="M22.843,108.739c1.737,1.489,3.225,3.721,5.954,2.977s4.466-3.969,5.21-1.985,4.218,7.195,3.225,10.172a2.17,2.17,0,0,1,.248,2.233c-.5,1.489-3.969,1.985-8.683,2.233a60.15,60.15,0,0,0-6.7,0c-4.218.5-9.179,1.737-12.4,1.737-3.969,0-7.195-.992-7.691-2.977-.5-1.737-.992-2.481,2.729-3.225,3.473-.744,8.435-4.466,10.172-5.458s3.473-2.977,4.962-4.466S22.1,108.242,22.843,108.739Z" transform="translate(2.803 160.687)" fill="#b6cde9"/>
        <g id="Group_1463" data-name="Group 1463" transform="translate(4.466 269.193)">
          <path id="Path_583" data-name="Path 583" d="M22.843,108.739c1.737,1.489,3.225,3.721,5.954,2.977s4.466-3.969,5.21-1.985,4.218,7.195,3.225,10.172a2.17,2.17,0,0,1,.248,2.233c-.5,1.489-3.969,1.985-8.683,2.233a60.15,60.15,0,0,0-6.7,0c-4.218.5-9.179,1.737-12.4,1.737-3.969,0-7.195-.992-7.691-2.977-.5-1.737-.992-2.481,2.729-3.225,3.473-.744,8.435-4.466,10.172-5.458s3.473-2.977,4.962-4.466S22.1,108.242,22.843,108.739Z" transform="translate(-1.663 -108.506)" fill="#cc3913"/>
        </g>
        <path id="Path_584" data-name="Path 584" d="M3.7,54.027s9.924-3.225,13.893-4.962S30.742,44.6,30.742,44.6c2.729,3.969,6.947,5.706,10.172,14.389,2.977,8.683-2.233,17.862-4.962,21.336-2.729,3.225-2.729,8.683-2.233,14.389S28.261,116.05,27.765,123c-.248,4.962,2.233,13.645,2.977,18.111.744,4.962,1.985,10.668.248,20.591-1.737,9.676-6.45,31.507-4.714,39.942s1.24,6.7,1.24,6.7-6.7,4.218-9.676,3.473-2.481-3.225-2.481-3.225,3.473-27.786-.744-52.843c-4.466-25.057-6.45-19.6-5.706-33v-.5A263.143,263.143,0,0,1,6.181,92.978c-.248-14.389.248-17.366-.992-22.328C3.7,65.44,4.2,62.214,3.7,54.027Z" transform="translate(5.82 66.048)" fill="#fdb171"/>
        <g id="Group_1465" data-name="Group 1465" transform="translate(0 271.82)">
          <path id="Path_590" data-name="Path 590" d="M21.787,109.9c1.737,1.737,3.225,3.969,5.954,3.225s4.466-3.969,5.21-1.985,4.218,7.443,3.473,10.42a2.17,2.17,0,0,1,.248,2.233c-.5,1.489-4.218,1.985-8.931,2.233a64.692,64.692,0,0,0-6.947,0c-4.218.5-9.427,1.737-12.653,1.737-3.969,0-7.195-.992-7.939-2.977-.5-1.985-.992-2.481,2.729-3.225,3.473-.744,8.683-4.466,10.42-5.706a44.929,44.929,0,0,0,5.21-4.466C20.547,109.652,21.043,109.156,21.787,109.9Z" transform="translate(0.137 -109.565)" fill="#de4922"/>
        </g>
        <path id="Path_591" data-name="Path 591" d="M24.837,11.2a36.824,36.824,0,0,0-.744,8.187c-.744.5-.992,1.489-1.985,1.985A27.936,27.936,0,0,1,10.2,25.341s.744-.992,1.737-2.481l12.9-11.66Z" transform="translate(15.446 16.586)" fill="#f09f5b"/>
        <path id="Path_592" data-name="Path 592" d="M19.878,10.4s4.218,3.473,5.458,13.645a80.17,80.17,0,0,1-.5,20.1c-.992,5.954-3.969,12.156-2.977,17.118A18.619,18.619,0,0,1,16.9,78.377s2.977-3.969,1.24-10.668c-.5-2.233-2.977-6.2-1.737-12.4,1.24-6.45,4.466-13.149,3.473-17.118-1.24-3.969-2.233-7.443-1.24-11.164s0-13.149-.992-13.893c-.992-.992.992-.992.992-.992Z" transform="translate(24.126 15.401)" fill="#912909"/>
        <path id="Path_593" data-name="Path 593" d="M22.545,11.135a2.157,2.157,0,0,1-.992,2.977l-2.233,1.24a2.157,2.157,0,0,1-2.977-.992h0a2.157,2.157,0,0,1,.992-2.977l2.233-1.24c1.24-.5,2.481-.248,2.977.992Z" transform="translate(24.188 14.666)" fill="#00265f"/>
        <path id="Path_594" data-name="Path 594" d="M31.578,22.74c-.744,1.985-.992,4.962-4.466,7.691s-8.683,6.2-10.42,6.2-2.977.5-5.706-3.969c-2.729-4.218-4.714-6.45-4.714-10.916-.248-4.466-1.985-13.4,3.473-16.87C13.964,2.4,20.662,3.637,24.136,7.11c3.473,3.721,3.721,4.962,4.962,10.668,0,0,2.977-3.969,4.218-4.218s2.233.5,1.489,2.977-1.24,1.985-1.24,3.225a4.769,4.769,0,0,1-.744,2.977C31.826,23.484,31.578,22.74,31.578,22.74Z" transform="translate(8.953 5.295)" fill="#fdb171"/>
        <path id="Path_595" data-name="Path 595" d="M8.5,5.673s6.947,12.4,16.622,14.389L28.843,8.9,19.912,2.2Z" transform="translate(12.928 3.258)" fill="#912909"/>
        <path id="Path_596" data-name="Path 596" d="M14.484,6.81S9.77,14,5.8,15.989c0,0-.248-9.924,5.21-14.389Z" transform="translate(8.929 2.369)" fill="#912909"/>
        <g id="Group_1469" data-name="Group 1469" transform="translate(9.434 111.419)">
          <g id="Group_1423" data-name="Group 1423" transform="translate(0)">
            <path id="Path_531" data-name="Path 531" d="M218.225,226.1c-.6-.2-.775-.846-.954-1.693-.239-1.1,0-1.382,0-1.382v-4.1s1.431-1.685,6.8-4.274,12.282-5.328,16.933-5.925a17.417,17.417,0,0,1,5.128,0c1.55,1.992,3.876,5.228,3.876,5.228s-2.922-.1-13.356,3.934c-11.686,4.531-16.754,8.166-17.887,8.265A.679.679,0,0,1,218.225,226.1Z" transform="translate(-217.165 -208.544)" fill="#fcb698"/>
          </g>
        </g>
        <g id="Group_1470" data-name="Group 1470" transform="translate(13.498 110.639) rotate(14)">
          <path id="Path_536" data-name="Path 536" d="M0,.159H0C.06.159.12.08.12.08S.18.08.18,0H.12C.12.159.06.159,0,.159Z" transform="translate(12.368 47.097)" fill="#de4922"/>
          <path id="Path_537" data-name="Path 537" d="M.06,0Z" transform="translate(12.067 47.415)" fill="#de4922"/>
          <path id="Path_538" data-name="Path 538" d="M0,17.642H0c.18.08,1.614-.462,1.855-.462C3,17.1,8.1,11.291,19.877,3.971,30.391-2.554,32.083.928,32.083.928s12.5,12.083,3.43,29.508c0,0-.087,2.988.033,4.978,0,0,1.767-2.507-5.262,1.312C24.157,40.067,14.951,45.665,12.608,47.1l-2.4.6-.9-3.626S5.039,33.411,2.636,24.977C1.794,22.272.18,20.108,0,17.642Z" transform="translate(0 0)" fill="#de4922"/>
          <path id="Path_539" data-name="Path 539" d="M.24.08A.756.756,0,0,1,0,0,.51.51,0,0,1,.24.08Z" transform="translate(10.025 42.88)" fill="#de4922"/>
        </g>
        <path id="Path_586" data-name="Path 586" d="M37.959,11.1c-.744,3.969-1.737,12.156,1.985,16.374s9.427,1.985,14.885,12.653S62.52,56,66.49,62.7,74.181,77.588,72.2,80.317c-1.737,2.729-28.282,20.343-31.507,22.328-2.977,1.985-9.179,5.706-11.908,4.466s-5.21-2.481-6.7-2.233-8.931,1.24-9.179,0c0-1.24,2.233-1.24,3.225-1.737.992-.248,3.473-1.489,2.977-1.737a31.023,31.023,0,0,0-4.714-.744c-.744,0-3.969,1.985-4.714,1.24s-.992-1.24.744-2.233S12.9,98.18,12.9,98.18s-4.218,1.489-4.714.248,0-1.985,1.985-2.729c1.489-.5,3.225-1.985,4.962-1.489a27.814,27.814,0,0,1,3.721.744s-2.233-1.489-2.729-1.737c-.5-.5-1.985-.248-3.225,0s-2.729.248-2.977-.248-.5-1.489,1.737-2.233a9.111,9.111,0,0,1,4.466-.248c1.737.248,3.969,1.489,5.21,1.737s6.2,1.489,6.45,1.489.248-.5-.5-2.481-.992-3.721-.248-4.466,1.24.5,2.481,2.729c.992,2.233,2.977,6.947,4.218,6.45A82.41,82.41,0,0,0,44.41,88.008c2.481-2.481,8.683-12.9,11.908-13.893a37.7,37.7,0,0,1-11.66-15.382L42.673,63.2,4.715,61.462S.5,56.5,1.49,50.794,5.46,42.607,9.181,39.382s7.939-4.962,8.931-6.7a5.978,5.978,0,0,1,4.714-3.473,31.02,31.02,0,0,0,.992-6.45Z" transform="translate(2.323 16.438)" fill="#fdb171"/>
        <path id="Path_589" data-name="Path 589" d="M5.7,47.777a3.635,3.635,0,0,1,2.729-.5,27.815,27.815,0,0,1,3.721.744s-2.233-1.489-2.729-1.737A6.914,6.914,0,0,0,6.94,46.04l.248-.248a2.9,2.9,0,0,0,0-2.233l-.248-.248a5.1,5.1,0,0,1,2.729,0c1.737.248,3.969,1.489,5.21,1.737s6.2,1.489,6.45,1.489.248-.5-.5-2.481a5.978,5.978,0,0,0,2.729-.744c.992,2.233,2.729,5.706,3.721,5.458,0,0-1.489,1.489-1.489,5.706,0,3.225.248,4.466.5,4.962-1.24.248-2.481.5-3.225,0-2.729-1.24-5.21-2.481-6.7-2.233-.5,0-1.985.248-3.721.5h0s-.744-2.729-1.489-2.481c.992-.5,2.481-1.24,1.985-1.489a31.021,31.021,0,0,0-4.714-.744H8.181c-.248-.992-.744-2.481-1.985-2.233l.5-.248H6.444C6.444,50.754,7.685,49.265,5.7,47.777Z" transform="translate(8.782 63.864)" fill="#fb8262"/>
        <g id="Group_1464" data-name="Group 1464" transform="translate(3.844 44.408)">
          <path id="Path_587" data-name="Path 587" d="M36.44,43.8s-9.179-2.729-17.366-2.729S4.437,39.339,2.948,38.347L2.7,31.4l37.958,1.737Z" transform="translate(0.495 2.092)" fill="#f3937a"/>
          <path id="Path_588" data-name="Path 588" d="M1.63,40.724c.992-5.706,3.969-8.187,7.691-11.412,0,0-4.714,5.458-1.489,6.2S18,31.545,23.214,27.327c4.714-3.969,12.4-7.195,17.118-9.427a14.626,14.626,0,0,0,5.458,2.977,13.485,13.485,0,0,0-11.412,7.939c-4.466,8.931,2.233,18.855,8.931,22.328l-1.489,4.218S24.7,53.873,19.244,53.625c-3.969-.248-14.389-2.233-14.389-2.233S.389,46.43,1.63,40.724Z" transform="translate(-1.412 -17.9)" fill="#de4922"/>
        </g>
      </g>
      <g id="Group_1492" data-name="Group 1492" transform="translate(0 0)">
        <g id="Group_1473" data-name="Group 1473" transform="translate(0 0)">
          <path id="Path_597" data-name="Path 597" d="M49.707,36.482c-.737,4.423,4.914,15.971,4.914,15.971,2.211,1.474,4.177,6.143,6.143,10.565A13.891,13.891,0,0,0,67.4,69.407c-5.9,2.211-18.428,20.885-19.411,22.6-4.668,8.354-19.411.737-19.411.737-1.474,1.474.737,4.668,3.931,6.634a50.03,50.03,0,0,0,8.6,2.7c5.9.983,5.16-.983,12.777-4.177,7.617-2.948,26.29-19.165,31.7-23.1s-3.194-18.428-8.845-27.765c-5.405-9.337-4.914-15.971-10.32-20.148Z" transform="translate(40.952 39.194)" fill="#fdb171"/>
          <g id="Group_1472" data-name="Group 1472" transform="translate(0 0)">
            <path id="Path_598" data-name="Path 598" d="M51.17,62a202.31,202.31,0,0,1,2.948,24.325c.491,11.3-14.005,9.828-14.005,9.828L26.6,79.691,37.165,66.668Z" transform="translate(38.752 90.336)" fill="#fdb171"/>
            <path id="Path_599" data-name="Path 599" d="M18.44,59.5a249.084,249.084,0,0,0-3.931,28.993c-.737,13.022,25.553,4.177,25.553,4.177l2.211-3.194.983-28.256Z" transform="translate(21.113 86.694)" fill="#fdb171"/>
            <path id="Path_600" data-name="Path 600" d="M19.808,31.087c9.091,1.72,17.691-3.194,17.936-8.108s.246-3.931.246-3.931l9.337.246V124.946L31.6,129.86l-8.845-10.811s5.651-25.307-.491-31.7S13.911,67.7,11.7,60.326Z" transform="translate(17.042 27.636)" fill="#fdb171"/>
            <path id="Path_601" data-name="Path 601" d="M19.808,31.087c9.091,1.72,17.691-3.194,17.936-8.108s.246-3.931.246-3.931l9.337.246V124.946L31.6,129.86l-8.845-10.811s5.651-25.307-.491-31.7S13.911,67.7,11.7,60.326Z" transform="translate(17.042 27.636)" fill="#fdb171"/>
            <path id="Path_602" data-name="Path 602" d="M41.767,41.642c.737,4.423-9.091,10.811-9.091,10.811C30.464,53.927,28.5,58.6,26.533,63.018A13.891,13.891,0,0,1,19.9,69.407c5.9,2.211,20.885,24.325,22.359,25.8s2.457-3.931,2.457-3.931c-2.211-2.7,1.229-5.651,2.457-6.88s3.686-.737,6.634,2.7c2.7,3.44-1.72,10.32-5.9,14.005-3.931,3.686-7.617.983-15.234-1.966C25.059,95.943,7.368,78.743,1.717,74.812c-5.405-3.931,3.194-18.428,8.845-27.765,5.405-9.337,4.914-15.971,10.32-20.148Z" transform="translate(-0.002 39.194)" fill="#fdb171"/>
            <path id="Path_603" data-name="Path 603" d="M61.973,59.98c-2.211,7.371-4.423,20.639-10.565,27.027s-.491,31.7-.491,31.7l-3.44,7.371L26.1,124.6V19.193l9.337-.246s0-.983.246,3.931,6.634,6.88,14.251,8.108Z" transform="translate(38.024 27.49)" fill="#fdb171"/>
            <path id="Path_604" data-name="Path 604" d="M37.434,25.839l3.686-3.686c-.246-4.177-.246-3.194-.246-3.194l-9.091.246-9.337-.246s0-.983-.246,3.194a50.56,50.56,0,0,0,3.686,3.686c1.474,1.72,3.931.983,4.668.983h2.457C33.748,27.068,36.205,27.559,37.434,25.839Z" transform="translate(32.341 27.478)" fill="#f09f5b"/>
            <path id="Path_605" data-name="Path 605" d="M52.729,25.679h-.246c.246-.983.246-2.211.491-3.194C53.712,17.079,55.186,1.6,37,1.6S20.3,17.079,21.033,22.485c.246.983.246,2.211.491,3.194h-.246c-2.7-1.966-2.948,3.44-1.966,5.16a8.615,8.615,0,0,1,1.474,3.44c.491,1.229,1.229,1.474,1.72,1.229,0,.737.246,1.474.246,1.966.246,2.948,7.125,8.6,8.6,10.32s3.931.983,4.668.983h2.457c.737,0,3.194.737,4.668-.983s8.354-7.617,8.6-10.32a6.106,6.106,0,0,1,.246-1.966c.491.246,1.229,0,1.72-1.229a8.615,8.615,0,0,1,1.474-3.44C55.677,29.119,55.432,23.468,52.729,25.679Z" transform="translate(27.365 2.331)" fill="#fdb171"/>
            <path id="Path_606" data-name="Path 606" d="M49.034,0s.737,1.966-14.742,1.966h-.983C18.567,2.7,19.3,16.954,19.3,16.954h0c0,3.686.737,7.125,1.229,10.811l.246-1.72s.246-1.72.737-3.931v-.246c.246-.491.491-1.229.737-1.72,4.177-8.108,13.759-5.405,13.759-5.405s9.582-2.7,13.514,5.651c.246.491.491,1.229.737,1.72a.241.241,0,0,1,.246.246,13.756,13.756,0,0,1,.737,3.931l.246,1.72a57.134,57.134,0,0,0,1.229-6.88h0A35.065,35.065,0,0,0,49.034,0Z" transform="translate(28.112 0)" fill="#37120b"/>
            <path id="Path_607" data-name="Path 607" d="M16.787,68.3c-1.474,11.794-2.457,35.873-.737,44.472,1.474,8.6.491,11.548-1.474,17.2s-1.229,15.479.983,26.782,3.686,16.216-1.966,21.622c0,0,.983,15.234,3.931,12.285s5.405-5.16,7.863-5.651c2.457-.737,4.177-4.177,2.457-8.108a23.138,23.138,0,0,1-1.474-13.022c.983-4.914,7.371-16.462,7.371-23.833s-2.211-5.651,0-14.005A258.373,258.373,0,0,0,43.815,71Z" transform="translate(19.572 99.516)" fill="#fdb171"/>
            <path id="Path_608" data-name="Path 608" d="M53.573,68.3c1.474,11.794,2.457,35.873.737,44.472-1.474,8.6-.491,11.548,1.474,17.2s1.229,15.479-.983,26.782-.491,14.742.983,22.113c1.229,6.634-.246,14.5-3.194,11.794-2.948-2.948-5.405-5.16-7.863-5.651-2.457-.737-4.177-4.177-2.457-8.108a23.138,23.138,0,0,0,1.474-13.022c-.983-4.914-7.371-16.462-7.371-23.833s2.211-5.651,0-14.005A258.373,258.373,0,0,1,26.3,71Z" transform="translate(38.315 99.516)" fill="#fdb171"/>
            <path id="Path_609" data-name="Path 609" d="M6.2,43.939s5.16-18.428,20.393-18.428c10.565,0,13.514,1.72,18.919-3.194s0,12.531,0,12.531L20.451,53.276Z" transform="translate(9.029 31.246)" fill="#fdb171"/>
            <path id="Path_610" data-name="Path 610" d="M70.737,43.939s-5.16-18.428-20.393-18.428c-10.565,0-13.514,1.72-18.919-3.194s0,12.531,0,12.531L56.486,53.03Z" transform="translate(42.281 31.246)" fill="#fdb171"/>
          </g>
          <path id="Path_613" data-name="Path 613" d="M20.617,59.5A638.085,638.085,0,0,0,13,126.823l27.765,1.72L45.433,91.2V61.466Z" transform="translate(18.936 86.694)" fill="#de4922"/>
          <path id="Path_614" data-name="Path 614" d="M50.67,59.5a638.085,638.085,0,0,1,7.617,67.323l-27.519,1.72L26.1,91.2V61.466Z" transform="translate(38.024 86.694)" fill="#de4922"/>
          <path id="Path_615" data-name="Path 615" d="M34.749,118.665c-2.211-5.651-3.44-10.565,5.405-10.565,7.371,0,6.143,5.16,3.931,10.565Z" transform="translate(48.294 157.506)" fill="#f57f60"/>
          <path id="Path_616" data-name="Path 616" d="M34.413,110.823s-1.72-.737-1.72,4.177c.246,4.668-.983,9.337.983,12.039s8.354,12.531,16.216,10.32,4.914-8.108,3.44-10.811c-2.211-3.686-5.405-5.405-5.16-9.091s1.229-6.634-2.948-6.634Z" transform="translate(47.401 161.416)" fill="#de4922"/>
          <path id="Path_617" data-name="Path 617" d="M24.946,118.665c2.211-5.651,3.44-10.565-5.405-10.565-7.371,0-6.143,5.16-3.931,10.565Z" transform="translate(20.258 157.506)" fill="#f57f60"/>
          <path id="Path_618" data-name="Path 618" d="M31.177,110.823s1.72-.737,1.72,4.177c-.246,4.668.983,9.337-.983,12.039S23.56,139.571,15.7,137.359s-4.914-8.108-3.44-10.811c2.211-3.686,5.405-5.405,5.16-9.091s-1.229-6.634,2.948-6.634Z" transform="translate(15.256 161.416)" fill="#de4922"/>
          <path id="Path_619" data-name="Path 619" d="M15.711,64.476c1.229.491,1.966,15.725,1.474,18.182s3.931-.246,4.668-8.108.246-7.371,1.474-6.634,3.44,3.686,4.914,2.948,1.474-2.457-.983-4.914c-3.686-3.44-2.948-4.914-7.125-10.074S13.5,53.42,13.5,53.42Z" transform="translate(19.665 76.803)" fill="#fdb171"/>
          <path id="Path_620" data-name="Path 620" d="M45.827,64.476c-1.229.491-1.966,15.725-1.474,18.182.246,2.457-3.931-.246-4.668-8.108s-.246-7.371-1.474-6.634S34.771,71.6,33.3,70.864s-1.474-2.457.983-4.914c3.686-3.44,2.948-4.914,7.125-10.074s6.634-2.457,6.634-2.457Z" transform="translate(47.043 76.803)" fill="#fdb171"/>
        </g>
        <g id="Group_1476" data-name="Group 1476" transform="translate(37.928 99.558)">
          <g id="Group_1475" data-name="Group 1475">
            <g id="Group_1474" data-name="Group 1474">
              <path id="Path_625" data-name="Path 625" d="M77.531,47.535a16.254,16.254,0,0,1-14.5.68c-2.492-1.133-4.3-2.492-5.89-3.172a14.876,14.876,0,0,0-5.663-.906,13.932,13.932,0,0,0-3.172.227l-2.718.68c-1.812.453-3.4,2.039-5.89,3.172a15.569,15.569,0,0,1-14.5-.68,20.519,20.519,0,0,0,12.46-3.172,51.54,51.54,0,0,1,5.89-4.078A10.864,10.864,0,0,1,47.4,39.153c1.359-.227,2.718-.227,3.851-.453a19.822,19.822,0,0,1,7.929,1.586c2.492,1.133,4.3,2.945,5.89,4.078A19.445,19.445,0,0,0,77.531,47.535Z" transform="translate(-25.2 -38.7)" fill="#f09f5b"/>
            </g>
          </g>
        </g>
        <g id="Group_1479" data-name="Group 1479" transform="translate(47.896 117.455)">
          <g id="Group_1478" data-name="Group 1478">
            <g id="Group_1477" data-name="Group 1477">
              <path id="Path_626" data-name="Path 626" d="M62.222,51.584a10.857,10.857,0,0,1-8.835.68c-1.586-.453-2.718-1.359-3.851-1.586a17.606,17.606,0,0,0-3.625-.453,9.39,9.39,0,0,0-3.625.453c-1.133.227-2.265,1.133-3.851,1.586a10.857,10.857,0,0,1-8.835-.68,16.8,16.8,0,0,0,7.7-1.812,19.191,19.191,0,0,1,3.851-2.265,19.446,19.446,0,0,1,4.757-.906,11.831,11.831,0,0,1,4.757.906,28.888,28.888,0,0,1,3.851,2.265A13.884,13.884,0,0,0,62.222,51.584Z" transform="translate(-29.6 -46.6)" fill="#f09f5b"/>
            </g>
          </g>
        </g>
        <g id="Group_1482" data-name="Group 1482" transform="translate(51.52 129.008)">
          <g id="Group_1481" data-name="Group 1481">
            <g id="Group_1480" data-name="Group 1480">
              <path id="Path_627" data-name="Path 627" d="M56.8,56a8.533,8.533,0,0,1-7.023.906c-1.359-.453-2.265-.906-2.945-1.133a10.156,10.156,0,0,0-2.718-.227c-2.265,0-3.172.453-5.89,1.359A7.589,7.589,0,0,1,31.2,56a12.051,12.051,0,0,0,5.89-1.812,23.89,23.89,0,0,1,2.945-1.812,11.252,11.252,0,0,1,7.7,0,11.083,11.083,0,0,1,2.945,1.812A12.2,12.2,0,0,0,56.8,56Z" transform="translate(-31.2 -51.7)" fill="#f09f5b"/>
            </g>
          </g>
        </g>
        <g id="Group_1485" data-name="Group 1485" transform="translate(53.333 138.523)">
          <g id="Group_1484" data-name="Group 1484">
            <g id="Group_1483" data-name="Group 1483">
              <path id="Path_628" data-name="Path 628" d="M53.974,59.978a7.2,7.2,0,0,1-6.117.906A10.953,10.953,0,0,0,43.1,59.751c-1.812,0-2.492.227-4.984,1.133A7.075,7.075,0,0,1,32,59.978a10.892,10.892,0,0,0,4.984-1.812,11.889,11.889,0,0,1,2.492-1.586,10.041,10.041,0,0,1,3.4-.68,9.09,9.09,0,0,1,3.4.68,7.872,7.872,0,0,1,2.492,1.586A9.583,9.583,0,0,0,53.974,59.978Z" transform="translate(-32 -55.9)" fill="#f09f5b"/>
            </g>
          </g>
        </g>
        <g id="Group_1489" data-name="Group 1489" transform="translate(29.702 70.156)">
          <g id="Group_1488" data-name="Group 1488">
            <path id="Path_638" data-name="Path 638" d="M19.2,23c4.112,1.609,7.832,4.469,9.594,8.759l.587,1.609.392,1.43a11.773,11.773,0,0,0,.979,2.324A8.416,8.416,0,0,0,33.885,40.7a14.3,14.3,0,0,0,4.9,1.788l1.371.179h1.566a16.209,16.209,0,0,0,2.937-.179,13.807,13.807,0,0,0,5.482-1.609,7.381,7.381,0,0,0,3.133-4.648,6.366,6.366,0,0,1-1.958,5.9,13.1,13.1,0,0,1-6.07,3.218,24.006,24.006,0,0,1-3.524.536c-.587,0-1.175.179-1.566.179H38.389a13.387,13.387,0,0,1-7.245-1.966,10.248,10.248,0,0,1-4.7-5.541,10.128,10.128,0,0,1-.979-3.218l-.2-1.43c0-.358-.2-.894-.2-1.251C24.291,29.614,21.941,26.218,19.2,23Z" transform="translate(-19.2 -23)" fill="#f09f5b"/>
          </g>
        </g>
        <g id="Group_1491" data-name="Group 1491" transform="translate(64.544 70.156)">
          <g id="Group_1490" data-name="Group 1490">
            <path id="Path_639" data-name="Path 639" d="M71.412,23c-2.765,3.224-5.135,6.448-5.925,9.852,0,.358-.2.9-.2,1.254l-.2,1.433a20.1,20.1,0,0,1-.987,3.224,12.259,12.259,0,0,1-4.74,5.553,13.569,13.569,0,0,1-7.307,1.97H50.281a4.768,4.768,0,0,1-1.58-.179l-3.555-.537a13.236,13.236,0,0,1-6.122-3.224,6.883,6.883,0,0,1-1.975-5.911,7.4,7.4,0,0,0,3.16,4.657,11.575,11.575,0,0,0,5.53,1.612,16.453,16.453,0,0,0,2.962.179h1.58l1.382-.179A13.1,13.1,0,0,0,56.6,40.912a9.66,9.66,0,0,0,3.16-3.582c.395-.716.592-1.612.987-2.329l.395-1.433.592-1.612A16.851,16.851,0,0,1,71.412,23Z" transform="translate(-36.949 -23)" fill="#f09f5b"/>
          </g>
        </g>
      </g>
    </g>
    <ellipse id="Ellipse_205" data-name="Ellipse 205" cx="112.383" cy="17.917" rx="112.383" ry="17.917" transform="translate(61.642 451.525)" fill="#ff9b70" opacity="0.223"/>
  </g>
</svg>
